<?xml version="1.0" standalone="no"?>
<!DOCTYPE svg PUBLIC "-//W3C//DTD SVG 20010904//EN"
 "http://www.w3.org/TR/2001/REC-SVG-20010904/DTD/svg10.dtd">
<svg version="1.0" xmlns="http://www.w3.org/2000/svg"
 width="335.000000pt" height="335.000000pt" viewBox="0 0 335.000000 335.000000"
 preserveAspectRatio="xMidYMid meet">

<g transform="translate(0.000000,335.000000) scale(0.100000,-0.100000)"
fill="#000000" stroke="none">
<path d="M0 2636 c0 -625 2 -715 15 -720 19 -7 19 -36 0 -36 -13 0 -15 -111
-15 -940 l0 -940 1675 0 1675 0 0 824 c0 650 -3 825 -12 829 -10 3 -10 9 0 26
9 16 12 204 12 846 l0 825 -1675 0 -1675 0 0 -714z m1518 681 c2 -11 -3 -17
-17 -17 -23 0 -35 15 -26 31 10 15 39 6 43 -14z m-108 -17 c0 -5 -4 -10 -10
-10 -5 0 -10 5 -10 10 0 6 5 10 10 10 6 0 10 -4 10 -10z m814 -16 c19 -18 19
-20 6 -45 -6 -11 -21 -19 -35 -19 -20 0 -45 24 -45 44 0 10 32 36 45 36 7 0
21 -7 29 -16z m-969 -14 c3 -5 1 -10 -4 -10 -6 0 -11 5 -11 10 0 6 2 10 4 10
3 0 8 -4 11 -10z m433 -17 c-21 -2 -57 -2 -80 0 -24 2 -7 4 37 4 44 0 63 -2
43 -4z m-223 -17 c-44 -7 -89 -10 -100 -7 -27 8 40 18 120 19 l60 0 -80 -12z
m459 0 c48 -8 91 -17 94 -20 12 -13 -6 -14 -48 -5 -25 6 -83 16 -130 24 -59 9
-73 13 -45 14 22 1 80 -6 129 -13z m-579 -16 c13 -5 14 -9 5 -9 -8 0 -24 4
-35 9 -13 5 -14 9 -5 9 8 0 24 -4 35 -9z m715 -20 c0 -5 -7 -10 -16 -10 -8 0
-12 5 -9 10 3 6 10 10 16 10 5 0 9 -4 9 -10z m-1171 -19 c17 -11 7 -41 -13
-41 -19 0 -29 17 -22 35 6 17 15 18 35 6z m1236 -1 c-3 -5 -12 -10 -18 -10 -7
0 -6 4 3 10 19 12 23 12 15 0z m65 -14 c0 -2 -7 -7 -16 -10 -8 -3 -12 -2 -9 4
6 10 25 14 25 6z m-1405 -36 c11 -18 -15 -50 -40 -50 -43 0 -57 63 -17 73 19
4 47 -8 57 -23z m275 20 c-8 -5 -19 -10 -25 -10 -5 0 -3 5 5 10 8 5 20 10 25
10 6 0 3 -5 -5 -10z m637 3 c-20 -2 -52 -2 -70 0 -17 2 0 4 38 4 39 0 53 -2
32 -4z m531 -2 c11 -7 10 -9 -3 -14 -9 -4 -14 -3 -10 2 3 5 -1 12 -7 14 -7 3
-8 6 -3 6 6 0 16 -3 23 -8z m-1588 -32 c0 -12 -7 -19 -19 -19 -26 0 -36 17
-21 35 15 18 40 8 40 -16z m900 24 c-168 -16 -397 -81 -547 -154 -263 -127
-552 -390 -648 -591 -18 -37 -36 -64 -40 -60 -5 4 -5 -1 -2 -11 4 -10 3 -16
-2 -12 -12 7 -52 -79 -102 -215 -21 -58 -38 -100 -38 -93 -2 24 51 174 88 255
65 142 240 405 279 419 12 5 22 13 22 19 0 6 -6 8 -12 4 -10 -5 -10 -3 0 7 7
8 18 14 25 14 7 1 11 7 9 14 -1 7 2 10 8 6 5 -3 40 20 76 51 93 79 216 157
335 213 55 26 97 50 93 53 -3 4 4 4 17 1 16 -5 20 -3 14 6 -6 10 -2 11 15 6
14 -4 20 -3 16 3 -12 20 246 70 359 69 39 0 54 -2 35 -4z m480 -18 c109 -22
220 -56 220 -67 0 -5 -10 -7 -22 -3 -20 5 -21 4 -6 -5 13 -8 24 -8 40 1 21 11
22 11 9 -4 -15 -19 -9 -21 22 -7 19 9 19 9 5 -2 -15 -11 -4 -19 83 -65 55 -28
137 -78 182 -110 145 -104 330 -306 416 -456 33 -58 15 -36 -44 51 -241 359
-637 611 -1055 671 -126 18 -129 20 -25 16 55 -2 134 -11 175 -20z m-945 -5
c-3 -5 -12 -10 -18 -10 -7 0 -6 4 3 10 19 12 23 12 15 0z m1200 0 c-3 -5 -12
-10 -18 -10 -7 0 -6 4 3 10 19 12 23 12 15 0z m-665 -40 c0 -5 -4 -10 -10 -10
-5 0 -10 5 -10 10 0 6 5 10 10 10 6 0 10 -4 10 -10z m747 -5 c0 -8 -4 -12 -9
-9 -5 3 -6 10 -3 15 9 13 12 11 12 -6z m-1467 0 c0 -2 -13 -11 -30 -20 -38
-19 -40 -11 -2 9 31 17 32 18 32 11z m1536 -39 c1 -9 -2 -14 -7 -10 -5 3 -6
10 -3 16 5 7 2 9 -8 6 -8 -4 -15 0 -15 8 0 19 30 1 33 -20z m-1606 -1 c0 -2
-10 -9 -22 -15 -22 -11 -22 -10 -4 4 21 17 26 19 26 11z m1510 1 c0 -2 -7 -7
-16 -10 -8 -3 -12 -2 -9 4 6 10 25 14 25 6z m150 -19 c0 -2 -8 -3 -18 -3 -10
0 -19 6 -19 13 0 8 6 9 19 2 10 -5 18 -11 18 -12z m36 -34 c-10 -11 -19 -7
-22 10 -2 15 0 16 12 6 8 -6 12 -14 10 -16z m-1601 7 c-3 -5 -12 -10 -18 -10
-7 0 -6 4 3 10 19 12 23 12 15 0z m1268 4 c11 -11 -5 -34 -23 -34 -18 0 -34
23 -23 34 4 3 14 6 23 6 9 0 19 -3 23 -6z m-1303 -19 c0 -2 -13 -11 -30 -20
-38 -19 -40 -11 -2 9 31 17 32 18 32 11z m1702 -33 c10 -8 15 -19 12 -24 -8
-12 -61 28 -61 46 0 16 5 14 49 -22z m-1872 24 c0 -2 -8 -10 -17 -17 -16 -13
-17 -12 -4 4 13 16 21 21 21 13z m100 0 c0 -2 -8 -10 -17 -17 -16 -13 -17 -12
-4 4 13 16 21 21 21 13z m1430 -6 c0 -5 -4 -10 -10 -10 -5 0 -10 5 -10 10 0 6
5 10 10 10 6 0 10 -4 10 -10z m-1479 -33 c-6 -8 -9 -17 -6 -20 3 -4 3 -5 0 -3
-7 4 -37 -20 -116 -93 -33 -30 -59 -49 -59 -44 0 6 19 27 43 46 23 20 65 56
92 81 50 46 67 57 46 33z m1439 -7 c0 -5 -4 -10 -10 -10 -5 0 -10 5 -10 10 0
6 5 10 10 10 6 0 10 -4 10 -10z m-1580 -23 c0 -2 -10 -12 -22 -23 l-23 -19 19
23 c18 21 26 27 26 19z m2025 -9 c5 4 5 2 2 -5 -4 -6 3 -20 16 -30 13 -10 27
-24 32 -32 4 -8 -8 -1 -28 15 -20 16 -37 33 -37 37 0 5 -4 6 -8 3 -5 -3 -9 1
-9 9 0 10 4 12 12 5 7 -5 16 -6 20 -2z m-54 -25 c13 -16 12 -17 -3 -4 -17 13
-22 21 -14 21 2 0 10 -8 17 -17z m40 -30 c13 -16 12 -17 -3 -4 -17 13 -22 21
-14 21 2 0 10 -8 17 -17z m-1104 -103 l3 -75 -23 45 c-28 56 -48 62 -208 58
l-120 -3 0 -400 c0 -220 0 -412 0 -426 1 -36 20 -58 66 -74 38 -13 31 -14
-110 -14 -130 0 -146 2 -116 13 18 6 42 22 52 35 18 22 19 48 19 448 l0 425
-177 -3 c-199 -5 -226 -12 -270 -79 -27 -39 -31 -90 -7 -90 8 0 12 -5 9 -10
-4 -6 -11 -8 -16 -5 -5 4 -5 -4 1 -19 5 -15 6 -26 0 -26 -5 0 -12 9 -15 20 -4
11 -17 33 -31 49 -21 26 -22 30 -8 42 8 7 21 27 29 44 15 37 64 77 114 94 22
7 143 11 350 12 174 0 339 4 366 9 91 14 90 15 92 -70z m1298 -22 c55 -57 85
-89 66 -73 -37 32 -34 25 15 -45 69 -99 174 -288 168 -304 -4 -11 -25 21 -64
99 -52 104 -111 194 -155 238 -9 9 -17 26 -18 37 -1 12 -7 18 -14 16 -7 -3
-10 1 -7 8 3 7 -1 16 -9 19 -17 6 -102 107 -90 107 4 0 53 -46 108 -102z
m-2335 59 c0 -2 -15 -16 -32 -33 l-33 -29 29 33 c28 30 36 37 36 29z m2256
-29 l29 -33 -32 29 c-31 28 -38 36 -30 36 2 0 16 -15 33 -32z m218 -1 c21 -16
18 -45 -6 -61 -38 -23 -78 35 -42 61 10 7 21 13 24 13 3 0 14 -6 24 -13z
m-2454 -30 c0 -2 -15 -16 -32 -33 l-33 -29 29 33 c28 30 36 37 36 29z m-100
-30 c0 -2 -10 -12 -22 -23 l-23 -19 19 23 c18 21 26 27 26 19z m2646 -68 c10
-17 -23 -46 -37 -32 -7 7 -9 19 -6 27 7 18 33 21 43 5z m-2646 -12 c0 -2 -10
-12 -22 -23 l-23 -19 19 23 c18 21 26 27 26 19z m2560 -47 c17 -22 30 -40 27
-40 -3 0 -22 21 -43 47 -21 26 -33 44 -27 40 6 -4 26 -25 43 -47z m-2377 6 c9
-22 -19 -42 -37 -26 -19 15 -10 40 14 40 10 0 20 -6 23 -14z m-353 -16 c0 -5
-4 -10 -10 -10 -5 0 -10 5 -10 10 0 6 5 10 10 10 6 0 10 -4 10 -10z m93 -42
c-20 -29 -41 -57 -47 -63 -13 -14 21 42 51 83 39 52 36 37 -4 -20z m2757 18
c0 -3 -4 -8 -10 -11 -5 -3 -10 -1 -10 4 0 6 5 11 10 11 6 0 10 -2 10 -4z
m-2820 -36 c-6 -11 -13 -20 -16 -20 -2 0 0 9 6 20 6 11 13 20 16 20 2 0 0 -9
-6 -20z m1371 -71 c-5 -13 -10 -19 -10 -12 -1 15 10 45 15 40 3 -2 0 -15 -5
-28z m-1418 -14 c-3 -9 -8 -14 -10 -11 -3 3 -2 9 2 15 9 16 15 13 8 -4z m2795
-80 c-3 -3 -9 2 -12 12 -6 14 -5 15 5 6 7 -7 10 -15 7 -18z m-1088 -5 c0 -5
-11 -10 -25 -10 -24 0 -25 -3 -25 -60 0 -33 -4 -60 -10 -60 -6 0 -10 27 -10
60 0 53 -2 60 -20 60 -11 0 -20 5 -20 10 0 6 25 10 55 10 30 0 55 -4 55 -10z
m248 -10 c28 -26 28 -67 0 -97 -27 -29 -55 -29 -85 -1 -29 27 -29 57 -2 92 25
31 57 33 87 6z m266 4 c30 -29 16 -56 -37 -69 -20 -5 -27 -13 -27 -31 0 -13
-4 -24 -10 -24 -6 0 -10 30 -10 70 l0 70 34 0 c19 0 42 -7 50 -16z m616 -79
c0 -5 -5 -3 -10 5 -5 8 -10 20 -10 25 0 6 5 3 10 -5 5 -8 10 -19 10 -25z m30
0 c0 -5 -5 -3 -10 5 -5 8 -10 20 -10 25 0 6 5 3 10 -5 5 -8 10 -19 10 -25z
m49 -60 c0 -5 -6 1 -14 15 -8 14 -14 30 -14 35 0 6 6 -1 14 -15 8 -14 14 -29
14 -35z m-49 -10 c0 -5 -5 -3 -10 5 -5 8 -10 20 -10 25 0 6 5 3 10 -5 5 -8 10
-19 10 -25z m17 3 c-3 -8 -6 -5 -6 6 -1 11 2 17 5 13 3 -3 4 -12 1 -19z
m-2759 -39 c6 -49 -58 -65 -73 -18 -9 27 13 51 44 47 20 -2 27 -9 29 -29z
m2761 -24 c0 -5 -4 -3 -9 5 -5 8 -9 22 -9 30 0 16 17 -16 18 -35z m-64 15 c0
-8 -10 -16 -22 -18 -18 -3 -23 2 -23 18 0 16 5 21 23 18 12 -2 22 -10 22 -18z
m-2931 -66 c-6 -25 -8 -26 -15 -9 -11 28 -10 43 1 25 8 -13 10 -12 10 4 0 11
2 17 5 14 4 -3 3 -18 -1 -34z m3003 14 c-3 -8 -6 -5 -6 6 -1 11 2 17 5 13 3
-3 4 -12 1 -19z m-1657 -73 c-10 -33 -19 -54 -19 -47 -1 21 32 128 35 117 2
-5 -5 -37 -16 -70z m-1243 43 c-3 -8 -6 -5 -6 6 -1 11 2 17 5 13 3 -3 4 -12 1
-19z m2866 -4 c11 -11 -5 -34 -23 -34 -18 0 -34 23 -23 34 4 3 14 6 23 6 9 0
19 -3 23 -6z m62 -24 c-4 -12 -9 -19 -12 -17 -3 3 -2 15 2 27 4 12 9 19 12 17
3 -3 2 -15 -2 -27z m-3045 -1 c0 -6 -4 -7 -10 -4 -5 3 -10 11 -10 16 0 6 5 7
10 4 6 -3 10 -11 10 -16z m218 -10 c4 -19 -27 -34 -41 -20 -14 14 0 43 20 39
10 -2 19 -10 21 -19z m-161 -21 c-3 -8 -6 -5 -6 6 -1 11 2 17 5 13 3 -3 4 -12
1 -19z m3017 -183 c4 -106 4 -110 -3 -30 -4 50 -13 116 -20 147 -7 32 -9 63
-4 70 11 19 21 -48 27 -187z m-3100 100 c-7 -38 -14 -99 -15 -135 -2 -55 -3
-58 -7 -20 -5 57 18 244 28 233 5 -4 2 -39 -6 -78z m73 33 c-3 -7 -5 -2 -5 12
0 14 2 19 5 13 2 -7 2 -19 0 -25z m50 0 c-3 -8 -6 -5 -6 6 -1 11 2 17 5 13 3
-3 4 -12 1 -19z m3070 -20 c-3 -8 -6 -5 -6 6 -1 11 2 17 5 13 3 -3 4 -12 1
-19z m-3130 -30 c-3 -7 -5 -2 -5 12 0 14 2 19 5 13 2 -7 2 -19 0 -25z m1292 5
c11 -24 11 -24 -14 -6 -28 21 -31 30 -11 30 8 0 19 -11 25 -24z m-1242 -35
c-3 -7 -5 -2 -5 12 0 14 2 19 5 13 2 -7 2 -19 0 -25z m3090 0 c-3 -8 -6 -5 -6
6 -1 11 2 17 5 13 3 -3 4 -12 1 -19z m-1817 -4 c0 -8 -5 -12 -10 -9 -6 4 -8
11 -5 16 9 14 15 11 15 -7z m-1333 -41 c-3 -10 -5 -4 -5 12 0 17 2 24 5 18 2
-7 2 -21 0 -30z m2576 21 l77 -7 0 -81 -1 -81 -14 40 c-8 22 -15 41 -15 42 0
1 -17 14 -37 28 -51 34 -144 36 -193 2 -46 -30 -72 -78 -72 -131 0 -80 8 -87
302 -321 111 -89 151 -165 155 -300 2 -71 -1 -95 -11 -99 -7 -3 -24 -27 -38
-54 -16 -32 -35 -54 -53 -61 -15 -7 -46 -21 -68 -33 -84 -44 -222 -41 -317 6
-28 14 -55 23 -61 19 -6 -3 -7 -1 -3 6 5 7 -2 21 -17 34 -31 28 -67 125 -67
182 0 25 9 68 19 95 21 54 69 125 79 116 3 -3 -2 -14 -12 -25 -9 -10 -26 -44
-37 -76 -23 -65 -21 -147 4 -205 34 -77 133 -139 223 -140 208 -1 328 178 238
357 -25 51 -47 72 -169 170 -202 161 -221 181 -234 242 -19 90 14 183 84 237
57 43 97 49 238 38z m524 -26 c-3 -7 -5 -2 -5 12 0 14 2 19 5 13 2 -7 2 -19 0
-25z m60 -35 c-3 -10 -5 -2 -5 17 0 19 2 27 5 18 2 -10 2 -26 0 -35z m-3170
-180 c-2 -32 -3 -8 -3 52 0 61 1 87 3 58 2 -29 2 -78 0 -110z m3120 20 c-2
-21 -4 -6 -4 32 0 39 2 55 4 38 2 -18 2 -50 0 -70z m-1413 71 c3 -8 2 -12 -4
-9 -6 3 -10 10 -10 16 0 14 7 11 14 -7z m76 -49 c14 -15 26 -21 30 -15 4 6 11
0 17 -13 6 -13 8 -30 3 -37 -6 -9 -10 -7 -15 8 -3 12 -23 35 -43 52 -20 16
-32 30 -26 30 6 0 21 -11 34 -25z m1277 -72 c-2 -21 -4 -6 -4 32 0 39 2 55 4
38 2 -18 2 -50 0 -70z m-1032 67 c10 -11 16 -20 13 -20 -3 0 -13 9 -23 20 -10
11 -16 20 -13 20 3 0 13 -9 23 -20z m-2088 -72 c-2 -18 -4 -6 -4 27 0 33 2 48
4 33 2 -15 2 -42 0 -60z m211 11 c4 -19 -19 -31 -38 -19 -18 11 -4 42 17 38
10 -2 19 -10 21 -19z m-81 -26 c-3 -10 -5 -4 -5 12 0 17 2 24 5 18 2 -7 2 -21
0 -30z m1770 -15 c-3 -8 -6 -5 -6 6 -1 11 2 17 5 13 3 -3 4 -12 1 -19z m1198
-145 c-54 -293 -205 -574 -425 -793 -126 -126 -256 -220 -405 -294 -203 -101
-371 -142 -635 -156 -91 -5 -178 -11 -195 -15 -25 -4 -27 -4 -10 5 16 8 11 9
-24 6 -58 -6 -249 41 -381 94 -217 86 -365 174 -511 303 -102 89 -202 198
-205 224 -2 12 6 8 26 -16 16 -19 27 -38 24 -43 -3 -4 -1 -8 3 -8 5 0 46 -37
93 -83 47 -45 105 -98 130 -116 26 -20 10 -2 -36 41 -136 128 -249 278 -329
438 -59 118 -57 130 3 15 60 -115 90 -161 168 -261 110 -141 268 -278 430
-372 135 -78 339 -158 376 -146 15 4 18 3 13 -7 -6 -9 -3 -11 9 -6 9 4 54 -3
99 -14 109 -27 326 -36 449 -19 333 45 653 204 888 440 177 177 298 368 375
590 36 105 74 255 76 307 l2 28 4 -27 c2 -15 -3 -67 -12 -115z m132 100 c-3
-10 -5 -4 -5 12 0 17 2 24 5 18 2 -7 2 -21 0 -30z m-3152 -268 c15 -44 34 -93
42 -108 15 -30 7 -62 -9 -33 -5 9 -6 21 -3 26 3 6 2 10 -4 10 -19 0 -85 238
-95 345 -5 45 0 33 18 -50 13 -60 36 -146 51 -190z m-8 238 c-3 -10 -5 -2 -5
17 0 19 2 27 5 18 2 -10 2 -26 0 -35z m3100 15 c-3 -7 -5 -2 -5 12 0 14 2 19
5 13 2 -7 2 -19 0 -25z m-3030 -10 c-3 -7 -5 -2 -5 12 0 14 2 19 5 13 2 -7 2
-19 0 -25z m3080 -50 c-3 -7 -5 -2 -5 12 0 14 2 19 5 13 2 -7 2 -19 0 -25z
m-3140 -15 c-3 -10 -5 -4 -5 12 0 17 2 24 5 18 2 -7 2 -21 0 -30z m70 15 c-3
-8 -6 -5 -6 6 -1 11 2 17 5 13 3 -3 4 -12 1 -19z m3010 0 c-3 -8 -6 -5 -6 6
-1 11 2 17 5 13 3 -3 4 -12 1 -19z m-1090 -30 c-3 -8 -6 -5 -6 6 -1 11 2 17 5
13 3 -3 4 -12 1 -19z m-1910 -20 c-3 -8 -6 -5 -6 6 -1 11 2 17 5 13 3 -3 4
-12 1 -19z m-70 -20 c-3 -7 -5 -2 -5 12 0 14 2 19 5 13 2 -7 2 -19 0 -25z
m273 -18 c0 -6 -4 -10 -10 -10 -5 0 -10 5 -10 10 0 6 -9 10 -20 10 -29 0 -25
-29 5 -40 14 -5 28 -17 31 -25 8 -19 -13 -45 -35 -45 -23 0 -58 26 -48 36 4 4
13 2 19 -4 16 -16 48 -15 48 1 0 7 -13 18 -30 24 -37 14 -41 49 -7 62 23 9 57
-2 57 -19z m160 -5 c0 -21 5 -25 30 -25 25 0 30 4 30 25 0 14 5 25 10 25 6 0
10 -27 10 -60 0 -33 -4 -60 -10 -60 -5 0 -10 14 -10 30 0 27 -3 30 -30 30 -27
0 -30 -3 -30 -30 0 -16 -4 -30 -10 -30 -6 0 -10 27 -10 60 0 33 4 60 10 60 6
0 10 -11 10 -25z m336 0 c14 -21 14 -30 4 -55 -22 -53 -92 -49 -106 5 -16 63
67 103 102 50z m239 5 c9 -27 -11 -50 -41 -50 -19 0 -24 -5 -24 -25 0 -14 -4
-25 -10 -25 -6 0 -10 27 -10 60 l0 60 39 0 c31 0 41 -4 46 -20z m232 4 c9 -24
-10 -49 -41 -52 -20 -3 -26 -9 -26 -28 0 -13 -4 -24 -10 -24 -6 0 -10 27 -10
60 l0 60 40 0 c28 0 43 -5 47 -16z m163 -44 c0 -33 -4 -60 -10 -60 -6 0 -10
27 -10 60 0 33 4 60 10 60 6 0 10 -27 10 -60z m200 18 l30 -41 0 41 c0 23 5
42 10 42 6 0 10 -27 10 -60 0 -33 -4 -60 -9 -60 -5 0 -23 21 -40 48 l-31 47 0
-47 c0 -27 -4 -48 -10 -48 -6 0 -10 27 -10 60 0 33 4 60 10 60 5 0 23 -19 40
-42z m298 22 c4 -13 3 -13 -11 -2 -34 29 -82 -12 -66 -56 7 -18 15 -23 36 -20
14 2 29 9 31 17 3 10 0 12 -12 8 -9 -4 -16 -2 -16 3 0 6 11 10 25 10 21 0 25
-5 25 -29 0 -27 -2 -29 -39 -27 -22 1 -46 8 -55 15 -19 16 -21 72 -4 89 17 17
80 11 86 -8z m90 -26 c-3 -27 -4 -26 -9 8 -3 22 -1 34 4 29 5 -5 7 -21 5 -37z
m-1981 4 c-3 -8 -6 -5 -6 6 -1 11 2 17 5 13 3 -3 4 -12 1 -19z m27 -83 c4 -20
3 -25 -3 -15 -5 8 -11 31 -15 50 -7 41 7 13 18 -35z m1970 5 c4 -25 3 -31 -4
-20 -5 8 -10 26 -10 39 0 32 6 24 14 -19z m16 -68 c0 -15 -2 -15 -10 -2 -13
20 -13 33 0 25 6 -3 10 -14 10 -23z m-1946 -52 c5 -17 4 -20 -2 -10 -5 8 -13
26 -16 40 -5 17 -4 20 2 10 5 -8 13 -26 16 -40z m-21 -55 c4 -8 1 -17 -5 -21
-7 -4 -8 -3 -4 4 4 7 2 12 -4 12 -6 0 -8 5 -5 10 8 14 12 13 18 -5z m2958 -18
c-10 -9 -11 -8 -5 6 3 10 9 15 12 12 3 -3 0 -11 -7 -18z m-951 -12 c0 -9 8
-40 19 -69 15 -45 17 -68 11 -132 l-7 -79 -2 71 c-1 68 -24 169 -42 189 -14
14 -11 35 6 35 8 0 15 -7 15 -15z m-1926 -136 c-2 -4 3 -10 12 -13 8 -3 13
-10 10 -15 -3 -5 1 -12 10 -15 9 -4 14 -9 10 -13 -3 -3 3 -13 14 -20 20 -14
19 -39 -1 -27 -5 3 -7 9 -4 14 3 4 -2 11 -11 14 -8 3 -13 10 -10 15 3 5 -1 12
-10 15 -8 3 -13 10 -10 15 3 5 -1 12 -10 15 -8 3 -12 10 -9 16 3 5 1 10 -5 10
-6 0 -9 4 -6 9 3 5 -1 12 -10 15 -8 3 -12 11 -8 17 4 7 13 0 25 -17 10 -15 16
-31 13 -35z m2816 21 c-6 -11 -13 -20 -16 -20 -2 0 0 9 6 20 6 11 13 20 16 20
2 0 0 -9 -6 -20z m-2600 -16 c0 -19 -28 -30 -42 -16 -8 8 -8 15 1 26 14 17 41
10 41 -10z m1801 -71 c-12 -20 -14 -14 -5 12 4 9 9 14 11 11 3 -2 0 -13 -6
-23z m-1736 -13 c0 -8 -10 -16 -22 -18 -18 -3 -23 2 -23 18 0 16 5 21 23 18
12 -2 22 -10 22 -18z m1765 0 c0 -6 -20 -32 -44 -58 -50 -54 -66 -82 -66 -113
0 -12 -2 -20 -5 -17 -4 3 -3 29 1 58 4 31 10 47 15 39 5 -9 15 3 30 34 14 28
26 42 30 35 5 -7 12 -4 20 11 15 24 19 26 19 11z m-2060 -20 c0 -5 -4 -10 -10
-10 -5 0 -10 5 -10 10 0 6 5 10 10 10 6 0 10 -4 10 -10z m2750 -3 c0 -2 -10
-12 -22 -23 l-23 -19 19 23 c18 21 26 27 26 19z m-255 -17 c3 -5 1 -10 -4 -10
-6 0 -11 5 -11 10 0 6 2 10 4 10 3 0 8 -4 11 -10z m185 6 c0 -2 -8 -10 -17
-17 -16 -13 -17 -12 -4 4 13 16 21 21 21 13z m-2315 -177 c62 -67 61 -66 -16
11 -47 48 -96 102 -108 121 -16 24 -11 20 15 -11 21 -25 70 -79 109 -121z
m2345 137 c0 -2 -8 -10 -17 -17 -16 -13 -17 -12 -4 4 13 16 21 21 21 13z m-70
-10 c0 -2 -8 -10 -17 -17 -16 -13 -17 -12 -4 4 13 16 21 21 21 13z m-2592 -23
c-2 -10 -13 -19 -26 -21 -17 -3 -22 2 -22 17 0 16 6 21 26 21 19 0 25 -5 22
-17z m2632 -6 c0 -2 -10 -12 -22 -23 l-23 -19 19 23 c18 21 26 27 26 19z m-80
-20 c0 -2 -19 -21 -42 -42 l-43 -40 40 43 c36 39 45 47 45 39z m174 -12 c6
-18 -16 -30 -39 -21 -20 7 -8 36 15 36 10 0 21 -7 24 -15z m-2684 -49 c0 -3
-4 -8 -10 -11 -5 -3 -10 -1 -10 4 0 6 5 11 10 11 6 0 10 -2 10 -4z m1847 -38
c-3 -7 -5 -2 -5 12 0 14 2 19 5 13 2 -7 2 -19 0 -25z m768 2 c0 -8 -10 -16
-22 -18 -18 -3 -23 2 -23 18 0 16 5 21 23 18 12 -2 22 -10 22 -18z m-125 7 c0
-2 -12 -14 -27 -28 l-28 -24 24 28 c23 25 31 32 31 24z m-660 -72 c-16 -47
-23 -40 -8 8 6 20 13 35 16 33 2 -3 -1 -21 -8 -41z m560 42 c0 -2 -15 -16 -32
-33 l-33 -29 29 33 c28 30 36 37 36 29z m30 -30 c0 -2 -12 -14 -27 -28 l-28
-24 24 28 c23 25 31 32 31 24z m123 -13 c11 -11 -5 -34 -24 -34 -12 0 -19 7
-19 20 0 19 28 28 43 14z m-2152 -21 c13 -16 12 -17 -3 -4 -10 7 -18 15 -18
17 0 8 8 3 21 -13z m2239 -3 c0 -13 -7 -20 -19 -20 -22 0 -35 15 -26 30 12 19
45 11 45 -10z m-310 7 c0 -2 -10 -12 -22 -23 l-23 -19 19 23 c18 21 26 27 26
19z m40 -20 c0 -2 -10 -12 -22 -23 l-23 -19 19 23 c18 21 26 27 26 19z m110
-7 c0 -5 -4 -10 -10 -10 -5 0 -10 5 -10 10 0 6 5 10 10 10 6 0 10 -4 10 -10z
m-2029 -17 c13 -16 12 -17 -3 -4 -10 7 -18 15 -18 17 0 8 8 3 21 -13z m1799
-17 c0 -2 -8 -10 -17 -17 -16 -13 -17 -12 -4 4 13 16 21 21 21 13z m-1640 -92
c0 -2 -9 0 -20 6 -11 6 -20 13 -20 16 0 2 9 0 20 -6 11 -6 20 -13 20 -16z
m288 14 c32 -32 -8 -80 -48 -58 -34 18 -19 70 20 70 9 0 21 -5 28 -12z m99
-74 c3 -8 1 -20 -5 -26 -15 -15 -43 8 -35 28 7 19 32 18 40 -2z m1213 -4 c0
-5 -4 -10 -10 -10 -5 0 -10 5 -10 10 0 6 5 10 10 10 6 0 10 -4 10 -10z m-230
-40 c-8 -5 -19 -10 -25 -10 -5 0 -3 5 5 10 8 5 20 10 25 10 6 0 3 -5 -5 -10z
m180 -20 c0 -13 -7 -20 -19 -20 -22 0 -35 15 -26 30 12 19 45 11 45 -10z m50
0 c0 -5 -2 -10 -4 -10 -3 0 -8 5 -11 10 -3 6 -1 10 4 10 6 0 11 -4 11 -10z
m-145 -36 c0 -10 -8 -20 -18 -22 -22 -4 -35 27 -16 39 20 12 34 5 34 -17z
m-428 -20 c-3 -3 -12 -4 -19 -1 -8 3 -5 6 6 6 11 1 17 -2 13 -5z m-64 -11 c-7
-2 -19 -2 -25 0 -7 3 -2 5 12 5 14 0 19 -2 13 -5z m-75 -10 c-10 -2 -26 -2
-35 0 -10 3 -2 5 17 5 19 0 27 -2 18 -5z m149 1 c-3 -3 -12 -4 -19 -1 -8 3 -5
6 6 6 11 1 17 -2 13 -5z m-310 -10 c-3 -3 -12 -4 -19 -1 -8 3 -5 6 6 6 11 1
17 -2 13 -5z m246 -1 c-7 -2 -19 -2 -25 0 -7 3 -2 5 12 5 14 0 19 -2 13 -5z
m-708 -23 c0 -19 -35 -26 -46 -9 -4 7 -5 17 -2 22 8 14 48 3 48 -13z m383 13
c-10 -2 -28 -2 -40 0 -13 2 -5 4 17 4 22 1 32 -1 23 -4z m225 0 c-13 -2 -35
-2 -50 0 -16 2 -5 4 22 4 28 0 40 -2 28 -4z"/>
<path d="M2540 2957 c0 -3 12 -12 26 -22 15 -9 23 -12 20 -6 -7 11 -46 35 -46
28z"/>
<path d="M3050 2325 c0 -5 5 -17 10 -25 5 -8 10 -10 10 -5 0 6 -5 17 -10 25
-5 8 -10 11 -10 5z"/>
<path d="M2105 2277 c-12 -19 -13 -30 -5 -51 14 -38 60 -33 74 7 20 55 -38 91
-69 44z"/>
<path d="M2380 2275 c0 -23 4 -26 28 -23 19 2 27 9 27 23 0 14 -8 21 -27 23
-24 3 -28 0 -28 -23z"/>
<path d="M2779 643 c-13 -16 -12 -17 4 -4 16 13 21 21 13 21 -2 0 -10 -8 -17
-17z"/>
<path d="M842 1298 c-13 -13 -15 -37 -6 -62 7 -19 45 -21 62 -4 26 26 7 78
-28 78 -9 0 -21 -5 -28 -12z"/>
<path d="M1090 1285 c0 -26 14 -31 39 -16 19 12 6 41 -19 41 -15 0 -20 -7 -20
-25z"/>
<path d="M1320 1285 c0 -26 14 -31 39 -16 19 12 6 41 -19 41 -15 0 -20 -7 -20
-25z"/>
</g>
</svg>
